<svg xmlns="http://www.w3.org/2000/svg" xmlns:svg="http://www.w3.org/2000/svg" id="svg10272" width="210mm" height="297mm" version="1.1" viewBox="0 0 744.094 1052.362"><defs id="defs10274"><marker style="overflow:visible" id="DotM" orient="auto" refX="0" refY="0"><path style="fill-rule:evenodd;stroke:#000;stroke-width:1pt;stroke-opacity:1;fill:#000;fill-opacity:1" id="path9977" d="M -2.5,-1.0 C -2.5,1.7600000 -4.7400000,4.0 -7.5,4.0 C -10.260000,4.0 -12.5,1.7600000 -12.5,-1.0 C -12.5,-3.7600000 -10.260000,-6.0 -7.5,-6.0 C -4.7400000,-6.0 -2.5,-3.7600000 -2.5,-1.0 z" transform="scale(0.4) translate(7.4, 1)"/></marker><marker style="overflow:visible" id="Arrow1Mstart" orient="auto" refX="0" refY="0"><path style="fill-rule:evenodd;stroke:#000;stroke-width:1pt;stroke-opacity:1;fill:#000;fill-opacity:1" id="path9919" d="M 0.0,0.0 L 5.0,-5.0 L -12.5,0.0 L 5.0,5.0 L 0.0,0.0 z" transform="scale(0.4) translate(10,0)"/></marker><marker style="overflow:visible" id="Tail" orient="auto" refX="0" refY="0"><g style="stroke:#000;stroke-opacity:1;fill:#000;fill-opacity:1" id="g9949" transform="scale(-1.2)"><path style="fill:#000;fill-rule:evenodd;stroke:#000;stroke-width:.8;stroke-linecap:round;stroke-opacity:1;fill-opacity:1" id="path9951" d="M -3.8048674,-3.9585227 L 0.54352094,0"/><path style="fill:#000;fill-rule:evenodd;stroke:#000;stroke-width:.8;stroke-linecap:round;stroke-opacity:1;fill-opacity:1" id="path9953" d="M -1.2866832,-3.9585227 L 3.0617053,0"/><path style="fill:#000;fill-rule:evenodd;stroke:#000;stroke-width:.8;stroke-linecap:round;stroke-opacity:1;fill-opacity:1" id="path9955" d="M 1.3053582,-3.9585227 L 5.6537466,0"/><path style="fill:#000;fill-rule:evenodd;stroke:#000;stroke-width:.8;stroke-linecap:round;stroke-opacity:1;fill-opacity:1" id="path9957" d="M -3.8048674,4.1775838 L 0.54352094,0.21974226"/><path style="fill:#000;fill-rule:evenodd;stroke:#000;stroke-width:.8;stroke-linecap:round;stroke-opacity:1;fill-opacity:1" id="path9959" d="M -1.2866832,4.1775838 L 3.0617053,0.21974226"/><path style="fill:#000;fill-rule:evenodd;stroke:#000;stroke-width:.8;stroke-linecap:round;stroke-opacity:1;fill-opacity:1" id="path9961" d="M 1.3053582,4.1775838 L 5.6537466,0.21974226"/></g></marker><marker style="overflow:visible" id="DotL" orient="auto" refX="0" refY="0"><path style="fill-rule:evenodd;stroke:#000;stroke-width:1pt;stroke-opacity:1;fill:#000;fill-opacity:1" id="path9974" d="M -2.5,-1.0 C -2.5,1.7600000 -4.7400000,4.0 -7.5,4.0 C -10.260000,4.0 -12.5,1.7600000 -12.5,-1.0 C -12.5,-3.7600000 -10.260000,-6.0 -7.5,-6.0 C -4.7400000,-6.0 -2.5,-3.7600000 -2.5,-1.0 z" transform="scale(0.8) translate(7.4, 1)"/></marker><marker style="overflow:visible" id="Arrow1Lend" orient="auto" refX="0" refY="0"><path style="fill-rule:evenodd;stroke:#000;stroke-width:1pt;stroke-opacity:1;fill:#000;fill-opacity:1" id="path9916" d="M 0.0,0.0 L 5.0,-5.0 L -12.5,0.0 L 5.0,5.0 L 0.0,0.0 z" transform="scale(0.8) rotate(180) translate(12.5,0)"/></marker><marker id="marker10985" orient="auto" refX="0" refY="0" style="overflow:visible"><path id="path10987" d="M 0.0,0.0 L 5.0,-5.0 L -12.5,0.0 L 5.0,5.0 L 0.0,0.0 z" transform="scale(0.4) rotate(180) translate(10,0)" style="fill-rule:evenodd;stroke:#000;stroke-width:1pt;stroke-opacity:1;fill:#000;fill-opacity:1"/></marker><marker id="marker10951" orient="auto" refX="0" refY="0" style="overflow:visible"><path id="path10953" d="M 0.0,0.0 L 5.0,-5.0 L -12.5,0.0 L 5.0,5.0 L 0.0,0.0 z" transform="scale(0.4) rotate(180) translate(10,0)" style="fill-rule:evenodd;stroke:#000;stroke-width:1pt;stroke-opacity:1;fill:#000;fill-opacity:1"/></marker><marker id="marker10923" orient="auto" refX="0" refY="0" style="overflow:visible"><path id="path10925" d="M 0.0,0.0 L 5.0,-5.0 L -12.5,0.0 L 5.0,5.0 L 0.0,0.0 z" transform="scale(0.4) rotate(180) translate(10,0)" style="fill-rule:evenodd;stroke:#000;stroke-width:1pt;stroke-opacity:1;fill:#000;fill-opacity:1"/></marker><marker id="marker10901" orient="auto" refX="0" refY="0" style="overflow:visible"><path id="path10903" d="M 0.0,0.0 L 5.0,-5.0 L -12.5,0.0 L 5.0,5.0 L 0.0,0.0 z" transform="scale(0.4) rotate(180) translate(10,0)" style="fill-rule:evenodd;stroke:#000;stroke-width:1pt;stroke-opacity:1;fill:#000;fill-opacity:1"/></marker><marker style="overflow:visible" id="DotL-0" orient="auto" refX="0" refY="0"><path style="fill:#000;fill-opacity:1;fill-rule:evenodd;stroke:#000;stroke-width:1pt;stroke-opacity:1" id="path9974-9" d="m -2.5,-1 c 0,2.76 -2.24,5 -5,5 -2.76,0 -5,-2.24 -5,-5 0,-2.76 2.24,-5 5,-5 2.76,0 5,2.24 5,5 z" transform="matrix(0.8,0,0,0.8,5.92,0.8)"/></marker><marker style="overflow:visible" id="Arrow1Lend-3" orient="auto" refX="0" refY="0"><path style="fill:#000;fill-opacity:1;fill-rule:evenodd;stroke:#000;stroke-width:1pt;stroke-opacity:1" id="path9916-6" d="M 0,0 5,-5 -12.5,0 5,5 0,0 Z" transform="matrix(-0.8,0,0,-0.8,-10,0)"/></marker><marker style="overflow:visible" id="DotL-0-8" orient="auto" refX="0" refY="0"><path style="fill:#000;fill-opacity:1;fill-rule:evenodd;stroke:#000;stroke-width:1pt;stroke-opacity:1" id="path9974-9-4" d="m -2.5,-1 c 0,2.76 -2.24,5 -5,5 -2.76,0 -5,-2.24 -5,-5 0,-2.76 2.24,-5 5,-5 2.76,0 5,2.24 5,5 z" transform="matrix(0.8,0,0,0.8,5.92,0.8)"/></marker><marker style="overflow:visible" id="Arrow1Lend-3-5" orient="auto" refX="0" refY="0"><path style="fill:#000;fill-opacity:1;fill-rule:evenodd;stroke:#000;stroke-width:1pt;stroke-opacity:1" id="path9916-6-0" d="M 0,0 5,-5 -12.5,0 5,5 0,0 Z" transform="matrix(-0.8,0,0,-0.8,-10,0)"/></marker></defs><metadata id="metadata10277"/><g id="layer1"><rect id="rect10822" width="30" height="30" x="50.714" y="132.719" style="fill:none;fill-opacity:1;stroke:#000;stroke-width:2;stroke-miterlimit:4;stroke-dasharray:none;stroke-dashoffset:0;stroke-opacity:1"/><rect id="rect10822-5" width="30" height="30" x="106.19" y="132.719" style="fill:none;fill-opacity:1;stroke:#000;stroke-width:2;stroke-miterlimit:4;stroke-dasharray:none;stroke-dashoffset:0;stroke-opacity:1"/><rect id="rect10822-3" width="30" height="30" x="161.667" y="132.719" style="fill:none;fill-opacity:1;stroke:#000;stroke-width:2;stroke-miterlimit:4;stroke-dasharray:none;stroke-dashoffset:0;stroke-opacity:1"/><rect id="rect10822-56" width="30" height="30" x="217.143" y="132.719" style="fill:none;fill-opacity:1;stroke:#000;stroke-width:2;stroke-miterlimit:4;stroke-dasharray:none;stroke-dashoffset:0;stroke-opacity:1"/><rect id="rect10822-5-2" width="30" height="30" x="106.131" y="82.648" style="fill:none;fill-opacity:1;stroke:#000;stroke-width:2;stroke-miterlimit:4;stroke-dasharray:2,2;stroke-dashoffset:0;stroke-opacity:1"/><rect id="rect10822-3-9" width="30" height="30" x="161.667" y="82.648" style="fill:none;fill-opacity:1;stroke:#000;stroke-width:2;stroke-miterlimit:4;stroke-dasharray:2,2;stroke-dashoffset:0;stroke-opacity:1"/><path id="path10869" d="m 80.714272,147.71936 25.476198,0" style="fill:none;fill-rule:evenodd;stroke:#000;stroke-width:1px;stroke-linecap:butt;stroke-linejoin:miter;stroke-opacity:1"/><path id="path10871" d="m 136.19047,147.71936 25.47619,0" style="fill:none;fill-rule:evenodd;stroke:#000;stroke-width:1px;stroke-linecap:butt;stroke-linejoin:miter;stroke-opacity:1"/><path id="path10873" d="m 191.66666,147.71936 25.47619,0" style="fill:none;fill-rule:evenodd;stroke:#000;stroke-width:1px;stroke-linecap:butt;stroke-linejoin:miter;stroke-opacity:1"/><path id="path10877" d="m 80.714272,133.62484 25.416678,-23.8824" style="fill:none;fill-rule:evenodd;stroke:#000;stroke-width:1;stroke-linecap:butt;stroke-linejoin:miter;stroke-miterlimit:4;stroke-dasharray:1,1;stroke-dashoffset:0;stroke-opacity:1"/><path id="path10879" d="m 136.13095,97.647919 25.53571,0" style="fill:none;fill-rule:evenodd;stroke:#000;stroke-width:1;stroke-linecap:butt;stroke-linejoin:miter;stroke-miterlimit:4;stroke-dasharray:1,1;stroke-dashoffset:0;stroke-opacity:1"/><path id="path12462" d="m 176.27162,195.50031 -0.25254,-32.07235" style="fill:none;fill-rule:evenodd;stroke:#000;stroke-width:1px;stroke-linecap:butt;stroke-linejoin:miter;stroke-opacity:1;marker-end:url(#Arrow1Lend);marker-start:url(#DotL)"/><path id="path12462-0" d="m 65.283621,195.50031 -0.25254,-32.07235" style="fill:none;fill-rule:evenodd;stroke:#000;stroke-width:1px;stroke-linecap:butt;stroke-linejoin:miter;stroke-opacity:1;marker-start:url(#DotL-0);marker-end:url(#Arrow1Lend-3)"/><text id="text13181" x="219.456" y="129.335" xml:space="preserve" style="font-style:normal;font-weight:400;font-size:10px;line-height:100%;font-family:sans-serif;text-align:start;letter-spacing:0;word-spacing:0;writing-mode:lr-tb;text-anchor:start;fill:#000;fill-opacity:1;stroke:none;stroke-width:1px;stroke-linecap:butt;stroke-linejoin:miter;stroke-opacity:1"><tspan id="tspan13183" x="219.456" y="129.335">head</tspan></text><text id="text13181-6" x="278.918" y="146.447" xml:space="preserve" style="font-style:normal;font-weight:400;font-size:10px;line-height:100%;font-family:sans-serif;text-align:start;letter-spacing:0;word-spacing:0;writing-mode:lr-tb;text-anchor:start;fill:#000;fill-opacity:1;stroke:none;stroke-width:1px;stroke-linecap:butt;stroke-linejoin:miter;stroke-opacity:1"><tspan id="tspan13203" x="278.918" y="146.447">Current chain</tspan><tspan id="tspan16835" x="278.918" y="156.447">tracked by producer</tspan></text><text id="text13205" x="278.918" y="89.246" xml:space="preserve" style="font-style:normal;font-weight:400;font-size:10px;line-height:100%;font-family:sans-serif;text-align:start;letter-spacing:0;word-spacing:0;writing-mode:lr-tb;text-anchor:start;fill:#000;fill-opacity:1;stroke:none;stroke-width:1px;stroke-linecap:butt;stroke-linejoin:miter;stroke-opacity:1"><tspan id="tspan13215" x="278.918" y="89.246">Old chain fork</tspan><tspan id="tspan13227" x="278.918" y="99.246">no longer tracked</tspan><tspan id="tspan16845" x="278.918" y="109.246">by the producer</tspan></text><rect id="rect13229" width="89.399" height="49.497" x="169.958" y="188.177" style="fill:none;fill-opacity:1;stroke:#000;stroke-width:.5;stroke-miterlimit:4;stroke-dasharray:none;stroke-dashoffset:0;stroke-opacity:1"/><text id="text13231" x="172.963" y="211.573" xml:space="preserve" style="font-style:normal;font-weight:400;font-size:10px;line-height:100%;font-family:sans-serif;text-align:start;letter-spacing:0;word-spacing:0;writing-mode:lr-tb;text-anchor:start;fill:#000;fill-opacity:1;stroke:none;stroke-width:1px;stroke-linecap:butt;stroke-linejoin:miter;stroke-opacity:1"><tspan id="tspan13315" x="172.963" y="211.573">Next instruction:</tspan><tspan id="tspan13390" x="172.963" y="221.573">roll forward</tspan><tspan id="tspan13235" x="172.963" y="231.573">to block 42, cdf0</tspan></text><text id="text13241" x="218.997" y="154.649" xml:space="preserve" style="font-style:normal;font-weight:400;font-size:5px;line-height:100%;font-family:sans-serif;text-align:start;letter-spacing:0;word-spacing:0;writing-mode:lr-tb;text-anchor:start;fill:#000;fill-opacity:1;stroke:none;stroke-width:1px;stroke-linecap:butt;stroke-linejoin:miter;stroke-opacity:1"><tspan id="tspan13243" x="218.997" y="154.649">block: 42</tspan><tspan id="tspan13317" x="218.997" y="159.649">hash: cdf0</tspan></text><rect id="rect13229-0" width="105.056" height="60.357" x="58.841" y="188.177" style="fill:none;fill-opacity:1;stroke:#000;stroke-width:.5;stroke-miterlimit:4;stroke-dasharray:none;stroke-dashoffset:0;stroke-opacity:1"/><text id="text13231-2" x="62.202" y="211.573" xml:space="preserve" style="font-style:normal;font-weight:400;font-size:10px;line-height:100%;font-family:sans-serif;text-align:start;letter-spacing:0;word-spacing:0;writing-mode:lr-tb;text-anchor:start;fill:#000;fill-opacity:1;stroke:none;stroke-width:1px;stroke-linecap:butt;stroke-linejoin:miter;stroke-opacity:1"><tspan id="tspan13313" x="62.202" y="211.573">Next instruction:</tspan><tspan id="tspan13235-7" x="62.202" y="221.573">roll backwards</tspan><tspan id="tspan13394" x="62.202" y="231.573">from block 41, 660f</tspan><tspan id="tspan13396" x="62.202" y="241.573">to block 39, fa40</tspan></text><text id="text13241-5" x="162.696" y="154.649" xml:space="preserve" style="font-style:normal;font-weight:400;font-size:5px;line-height:100%;font-family:sans-serif;text-align:start;letter-spacing:0;word-spacing:0;writing-mode:lr-tb;text-anchor:start;fill:#000;fill-opacity:1;stroke:none;stroke-width:1px;stroke-linecap:butt;stroke-linejoin:miter;stroke-opacity:1"><tspan id="tspan13243-9" x="162.696" y="154.649">block: 41</tspan><tspan id="tspan13317-2" x="162.696" y="159.649">hash: e4e0</tspan></text><text id="text13241-2" x="107.205" y="154.649" xml:space="preserve" style="font-style:normal;font-weight:400;font-size:5px;line-height:100%;font-family:sans-serif;text-align:start;letter-spacing:0;word-spacing:0;writing-mode:lr-tb;text-anchor:start;fill:#000;fill-opacity:1;stroke:none;stroke-width:1px;stroke-linecap:butt;stroke-linejoin:miter;stroke-opacity:1"><tspan id="tspan13243-8" x="107.205" y="154.649">block: 40</tspan><tspan id="tspan13317-9" x="107.205" y="159.649">hash: 5de3</tspan></text><text id="text13241-7" x="52.407" y="154.649" xml:space="preserve" style="font-style:normal;font-weight:400;font-size:5px;line-height:100%;font-family:sans-serif;text-align:start;letter-spacing:0;word-spacing:0;writing-mode:lr-tb;text-anchor:start;fill:#000;fill-opacity:1;stroke:none;stroke-width:1px;stroke-linecap:butt;stroke-linejoin:miter;stroke-opacity:1"><tspan id="tspan13243-3" x="52.407" y="154.649">block: 39</tspan><tspan id="tspan13317-6" x="52.407" y="159.649">hash: fa40</tspan></text><text id="text13241-1" x="107.149" y="105.707" xml:space="preserve" style="font-style:normal;font-weight:400;font-size:5px;line-height:100%;font-family:sans-serif;text-align:start;letter-spacing:0;word-spacing:0;writing-mode:lr-tb;text-anchor:start;fill:#000;fill-opacity:1;stroke:none;stroke-width:1px;stroke-linecap:butt;stroke-linejoin:miter;stroke-opacity:1"><tspan id="tspan13243-2" x="107.149" y="105.707">block: 40</tspan><tspan id="tspan13317-93" x="107.149" y="110.707">hash: aab4</tspan></text><text id="text13241-19" x="163.085" y="105.707" xml:space="preserve" style="font-style:normal;font-weight:400;font-size:5px;line-height:100%;font-family:sans-serif;text-align:start;letter-spacing:0;word-spacing:0;writing-mode:lr-tb;text-anchor:start;fill:#000;fill-opacity:1;stroke:none;stroke-width:1px;stroke-linecap:butt;stroke-linejoin:miter;stroke-opacity:1"><tspan id="tspan13243-4" x="163.085" y="105.707">block: 41</tspan><tspan id="tspan13317-7" x="163.085" y="110.707">hash: 660f</tspan></text><text id="text13380" x="79.45" y="185.167" xml:space="preserve" style="font-style:normal;font-weight:400;font-size:10px;line-height:100%;font-family:sans-serif;text-align:start;letter-spacing:0;word-spacing:0;writing-mode:lr-tb;text-anchor:start;fill:#000;fill-opacity:1;stroke:none;stroke-width:1px;stroke-linecap:butt;stroke-linejoin:miter;stroke-opacity:1"><tspan id="tspan13382" x="79.45" y="185.167">Consumer B:</tspan></text><text id="text13384" x="182.836" y="185.167" xml:space="preserve" style="font-style:normal;font-weight:400;font-size:10px;line-height:100%;font-family:sans-serif;text-align:start;letter-spacing:0;word-spacing:0;writing-mode:lr-tb;text-anchor:start;fill:#000;fill-opacity:1;stroke:none;stroke-width:1px;stroke-linecap:butt;stroke-linejoin:miter;stroke-opacity:1"><tspan id="tspan13386" x="182.836" y="185.167">Consumer A:</tspan></text><path id="path12462-0-3" d="M 65.536152,195.50926 C 99.107581,127.65212 161.50064,113.24182 161.50064,113.24182" style="fill:none;fill-rule:evenodd;stroke:#000;stroke-width:1;stroke-linecap:butt;stroke-linejoin:miter;stroke-miterlimit:4;stroke-dasharray:8,1;stroke-dashoffset:0;stroke-opacity:1;marker-end:url(#DotM)"/><text id="text13181-6-6" x="278.957" y="195.524" xml:space="preserve" style="font-style:normal;font-weight:400;font-size:10px;line-height:100%;font-family:sans-serif;text-align:start;letter-spacing:0;word-spacing:0;writing-mode:lr-tb;text-anchor:start;fill:#000;fill-opacity:1;stroke:none;stroke-width:1px;stroke-linecap:butt;stroke-linejoin:miter;stroke-opacity:1"><tspan id="tspan16835-0" x="278.957" y="195.524">State of read pointers</tspan><tspan id="tspan16872" x="278.957" y="205.524">for example consumers</tspan></text><path id="path10869-6" d="m 34.484619,147.71936 15.753481,0" style="fill:none;fill-rule:evenodd;stroke:#000;stroke-width:1px;stroke-linecap:butt;stroke-linejoin:miter;stroke-opacity:1"/></g></svg>