<svg xmlns="http://www.w3.org/2000/svg" xmlns:svg="http://www.w3.org/2000/svg" id="svg2" width="210mm" height="297mm" version="1.1" viewBox="0 0 744.094 1052.362"><defs id="defs4"><marker id="marker5278" orient="auto" refX="0" refY="0" style="overflow:visible"><path id="path5280" d="M 0.0,0.0 L 5.0,-5.0 L -12.5,0.0 L 5.0,5.0 L 0.0,0.0 z" transform="scale(0.8) rotate(180) translate(12.5,0)" style="fill-rule:evenodd;stroke:#000;stroke-width:1pt;stroke-opacity:1;fill:#000;fill-opacity:1"/></marker><marker style="overflow:visible" id="marker5184" orient="auto" refX="0" refY="0"><path style="fill-rule:evenodd;stroke:#000;stroke-width:1pt;stroke-opacity:1;fill:#000;fill-opacity:1" id="path5186" d="M 0.0,0.0 L 5.0,-5.0 L -12.5,0.0 L 5.0,5.0 L 0.0,0.0 z" transform="scale(0.8) rotate(180) translate(12.5,0)"/></marker><marker style="overflow:visible" id="marker5090" orient="auto" refX="0" refY="0"><path style="fill-rule:evenodd;stroke:#000;stroke-width:1pt;stroke-opacity:1;fill:#000;fill-opacity:1" id="path5092" d="M 0.0,0.0 L 5.0,-5.0 L -12.5,0.0 L 5.0,5.0 L 0.0,0.0 z" transform="scale(0.8) rotate(180) translate(12.5,0)"/></marker><marker id="marker4994" orient="auto" refX="0" refY="0" style="overflow:visible"><path id="path4996" d="M 0.0,0.0 L 5.0,-5.0 L -12.5,0.0 L 5.0,5.0 L 0.0,0.0 z" transform="scale(0.8) rotate(180) translate(12.5,0)" style="fill-rule:evenodd;stroke:#000;stroke-width:1pt;stroke-opacity:1;fill:#000;fill-opacity:1"/></marker><marker id="marker4924" orient="auto" refX="0" refY="0" style="overflow:visible"><path id="path4926" d="M 0.0,0.0 L 5.0,-5.0 L -12.5,0.0 L 5.0,5.0 L 0.0,0.0 z" transform="scale(0.8) rotate(180) translate(12.5,0)" style="fill-rule:evenodd;stroke:#000;stroke-width:1pt;stroke-opacity:1;fill:#000;fill-opacity:1"/></marker><marker id="marker4860" orient="auto" refX="0" refY="0" style="overflow:visible"><path id="path4862" d="M 0.0,0.0 L 5.0,-5.0 L -12.5,0.0 L 5.0,5.0 L 0.0,0.0 z" transform="scale(0.8) rotate(180) translate(12.5,0)" style="fill-rule:evenodd;stroke:#000;stroke-width:1pt;stroke-opacity:1;fill:#000;fill-opacity:1"/></marker><marker style="overflow:visible" id="marker4790" orient="auto" refX="0" refY="0"><path style="fill-rule:evenodd;stroke:#000;stroke-width:1pt;stroke-opacity:1;fill:#000;fill-opacity:1" id="path4792" d="M 0.0,0.0 L 5.0,-5.0 L -12.5,0.0 L 5.0,5.0 L 0.0,0.0 z" transform="scale(0.8) rotate(180) translate(12.5,0)"/></marker><marker style="overflow:visible" id="marker4738" orient="auto" refX="0" refY="0"><path style="fill-rule:evenodd;stroke:#000;stroke-width:1pt;stroke-opacity:1;fill:#000;fill-opacity:1" id="path4740" d="M 0.0,0.0 L 5.0,-5.0 L -12.5,0.0 L 5.0,5.0 L 0.0,0.0 z" transform="scale(0.8) rotate(180) translate(12.5,0)"/></marker><marker style="overflow:visible" id="marker4692" orient="auto" refX="0" refY="0"><path style="fill-rule:evenodd;stroke:#000;stroke-width:1pt;stroke-opacity:1;fill:#000;fill-opacity:1" id="path4694" d="M 0.0,0.0 L 5.0,-5.0 L -12.5,0.0 L 5.0,5.0 L 0.0,0.0 z" transform="scale(0.8) rotate(180) translate(12.5,0)"/></marker><marker style="overflow:visible" id="marker4652" orient="auto" refX="0" refY="0"><path style="fill-rule:evenodd;stroke:#000;stroke-width:1pt;stroke-opacity:1;fill:#000;fill-opacity:1" id="path4654" d="M 0.0,0.0 L 5.0,-5.0 L -12.5,0.0 L 5.0,5.0 L 0.0,0.0 z" transform="scale(0.8) rotate(180) translate(12.5,0)"/></marker><marker style="overflow:visible" id="marker4618" orient="auto" refX="0" refY="0"><path style="fill-rule:evenodd;stroke:#000;stroke-width:1pt;stroke-opacity:1;fill:#000;fill-opacity:1" id="path4620" d="M 0.0,0.0 L 5.0,-5.0 L -12.5,0.0 L 5.0,5.0 L 0.0,0.0 z" transform="scale(0.8) rotate(180) translate(12.5,0)"/></marker><marker style="overflow:visible" id="marker4590" orient="auto" refX="0" refY="0"><path style="fill-rule:evenodd;stroke:#000;stroke-width:1pt;stroke-opacity:1;fill:#000;fill-opacity:1" id="path4592" d="M 0.0,0.0 L 5.0,-5.0 L -12.5,0.0 L 5.0,5.0 L 0.0,0.0 z" transform="scale(0.8) rotate(180) translate(12.5,0)"/></marker><marker id="Arrow1Lend" orient="auto" refX="0" refY="0" style="overflow:visible"><path id="path4279" d="M 0.0,0.0 L 5.0,-5.0 L -12.5,0.0 L 5.0,5.0 L 0.0,0.0 z" transform="scale(0.8) rotate(180) translate(12.5,0)" style="fill-rule:evenodd;stroke:#000;stroke-width:1pt;stroke-opacity:1;fill:#000;fill-opacity:1"/></marker><marker id="Arrow1Lstart" orient="auto" refX="0" refY="0" style="overflow:visible"><path id="path4276" d="M 0.0,0.0 L 5.0,-5.0 L -12.5,0.0 L 5.0,5.0 L 0.0,0.0 z" transform="scale(0.8) translate(12.5,0)" style="fill-rule:evenodd;stroke:#000;stroke-width:1pt;stroke-opacity:1;fill:#000;fill-opacity:1"/></marker></defs><metadata id="metadata7"/><g id="layer1"><ellipse style="fill:none;fill-opacity:1;stroke:#000;stroke-width:3;stroke-miterlimit:4;stroke-dasharray:none;stroke-dashoffset:0;stroke-opacity:1" id="path4136" cx="-375.3" cy="323.519" rx="175.767" ry="171.726" transform="matrix(0,-1,1,0,0,0)"/><circle style="fill:none;fill-opacity:1;stroke:#000;stroke-width:3;stroke-miterlimit:4;stroke-dasharray:none;stroke-dashoffset:0;stroke-opacity:1" id="path4138" cx="-501.766" cy="76.725" r="32.83" transform="matrix(0,-1,1,0,0,0)"/><circle style="fill:none;fill-opacity:1;stroke:#000;stroke-width:3;stroke-miterlimit:4;stroke-dasharray:none;stroke-dashoffset:0;stroke-opacity:1" id="path4138-3" cx="-376.3" cy="49.274" r="32.83" transform="matrix(0,-1,1,0,0,0)"/><circle style="fill:none;fill-opacity:1;stroke:#000;stroke-width:3;stroke-miterlimit:4;stroke-dasharray:none;stroke-dashoffset:0;stroke-opacity:1" id="path4138-6" cx="-238.834" cy="76.725" r="32.83" transform="matrix(0,-1,1,0,0,0)"/><circle style="fill:none;fill-opacity:1;stroke:#000;stroke-width:3;stroke-miterlimit:4;stroke-dasharray:none;stroke-dashoffset:0;stroke-opacity:1" id="path4138-7" cx="-508.574" cy="592.854" r="32.83" transform="matrix(0,-1,1,0,0,0)"/><circle style="fill:none;fill-opacity:1;stroke:#000;stroke-width:3;stroke-miterlimit:4;stroke-dasharray:none;stroke-dashoffset:0;stroke-opacity:1" id="path4138-3-5" cx="-377.108" cy="632.194" r="32.83" transform="matrix(0,-1,1,0,0,0)"/><circle style="fill:none;fill-opacity:1;stroke:#000;stroke-width:3;stroke-miterlimit:4;stroke-dasharray:none;stroke-dashoffset:0;stroke-opacity:1" id="path4138-6-3" cx="-245.642" cy="592.854" r="32.83" transform="matrix(0,-1,1,0,0,0)"/><rect style="fill:none;fill-opacity:1;stroke:#000;stroke-width:2;stroke-miterlimit:4;stroke-dasharray:none;stroke-dashoffset:0;stroke-opacity:1" id="rect4208" width="52.528" height="52.528" x="-518.045" y="245.656" transform="matrix(0,-1,1,0,0,0)"/><rect style="fill:none;fill-opacity:1;stroke:#000;stroke-width:2;stroke-miterlimit:4;stroke-dasharray:none;stroke-dashoffset:0;stroke-opacity:1" id="rect4208-5" width="52.528" height="52.528" x="-437.557" y="193.367" transform="matrix(0,-1,1,0,0,0)"/><rect style="fill:none;fill-opacity:1;stroke:#000;stroke-width:2;stroke-miterlimit:4;stroke-dasharray:none;stroke-dashoffset:0;stroke-opacity:1" id="rect4208-6" width="52.528" height="52.528" x="-370.502" y="177.552" transform="matrix(0,-1,1,0,0,0)"/><rect style="fill:none;fill-opacity:1;stroke:#000;stroke-width:2;stroke-miterlimit:4;stroke-dasharray:none;stroke-dashoffset:0;stroke-opacity:1" id="rect4208-6-2" width="52.528" height="52.528" x="-475.436" y="391.199" transform="matrix(0,-1,1,0,0,0)"/><rect style="fill:#ccc;fill-opacity:1;stroke:#000;stroke-width:2;stroke-miterlimit:4;stroke-dasharray:none;stroke-dashoffset:0;stroke-opacity:1" id="rect4208-6-9" width="52.528" height="52.528" x="-283.791" y="355.339" transform="matrix(0,-1,1,0,0,0)"/><path style="fill:none;fill-rule:evenodd;stroke:#000;stroke-width:1;stroke-linecap:butt;stroke-linejoin:miter;stroke-miterlimit:4;stroke-dasharray:1,1;stroke-opacity:1;marker-end:url(#marker4738);stroke-dashoffset:0" id="path4252" d="m 298.18417,484.09182 c 0,0 2.87186,-25.71582 91.76529,-27.23105"/><path style="fill:none;fill-rule:evenodd;stroke:#000;stroke-width:1;stroke-linecap:butt;stroke-linejoin:miter;stroke-miterlimit:4;stroke-dasharray:1,1;stroke-opacity:1;marker-end:url(#marker4790);stroke-dashoffset:0" id="path4254" d="m 245.89503,416.32158 c 0,0 48.41644,30.02031 143.87586,30.02031"/><path style="fill:none;fill-rule:evenodd;stroke:#000;stroke-width:1;stroke-linecap:butt;stroke-linejoin:miter;stroke-miterlimit:4;stroke-dasharray:1,1;stroke-opacity:1;marker-end:url(#marker4590);stroke-dashoffset:0" id="path4256" d="m 230.08009,357.13731 c 0,0 22.25141,77.35166 160.13723,78.86689"/><path style="fill:none;fill-rule:evenodd;stroke:#000;stroke-width:1;stroke-linecap:butt;stroke-linejoin:miter;stroke-miterlimit:4;stroke-dasharray:none;stroke-opacity:1;marker-start:url(#Arrow1Lstart);marker-end:url(#Arrow1Lend)" id="path4258" d="M 386.51748,283.79089 412.54893,422.9078"/><path style="fill:none;fill-rule:evenodd;stroke:#000;stroke-width:1;stroke-linecap:butt;stroke-linejoin:miter;stroke-miterlimit:4;stroke-dasharray:none;stroke-opacity:1;marker-end:url(#marker4692)" id="path4260" d="m 109.51143,500.08852 136.1448,-6.96422"/><path style="display:inline;fill:none;fill-rule:evenodd;stroke:#000;stroke-width:1;stroke-linecap:butt;stroke-linejoin:miter;stroke-miterlimit:4;stroke-dasharray:none;stroke-opacity:1;marker-end:url(#marker4652)" id="path4262" d="M 81.432147,382.90539 193.3671,405.89794"/><path style="fill:none;fill-rule:evenodd;stroke:#000;stroke-width:1;stroke-linecap:butt;stroke-linejoin:miter;stroke-miterlimit:4;stroke-dasharray:none;stroke-opacity:1;marker-end:url(#marker4618)" id="path4264" d="m 101.9943,259.79142 75.55785,62.6641"/><path style="fill:none;fill-rule:evenodd;stroke:#000;stroke-width:1;stroke-linecap:butt;stroke-linejoin:miter;stroke-miterlimit:4;stroke-dasharray:none;stroke-opacity:1;marker-end:url(#marker4860)" id="path4266" d="M 443.72739,440.35758 601.07082,387.5532"/><path style="fill:none;fill-rule:evenodd;stroke:#000;stroke-width:1;stroke-linecap:butt;stroke-linejoin:miter;stroke-miterlimit:4;stroke-dasharray:none;stroke-opacity:1;marker-end:url(#marker4994)" id="path4268" d="M 440.09623,422.9078 571.42242,270.51201"/><path style="fill:none;fill-rule:evenodd;stroke:#000;stroke-width:1;stroke-linecap:butt;stroke-linejoin:miter;stroke-miterlimit:4;stroke-dasharray:none;stroke-opacity:1;marker-end:url(#marker5278)" id="path5082" d="m 443.72739,458.06699 118.03193,39.97575"/><text style="font-style:normal;font-weight:400;font-size:22.5px;line-height:100%;font-family:sans-serif;text-align:start;letter-spacing:0;word-spacing:0;writing-mode:lr-tb;text-anchor:start;fill:#000;fill-opacity:1;stroke:none;stroke-width:1px;stroke-linecap:butt;stroke-linejoin:miter;stroke-opacity:1" id="text5388" x="13.152" y="164.008" xml:space="preserve"><tspan id="tspan5390" x="13.152" y="164.008">Upstream</tspan><tspan id="tspan5624" x="13.152" y="186.508">peer nodes</tspan></text><text style="font-style:normal;font-weight:400;font-size:22.5px;line-height:100%;font-family:sans-serif;text-align:start;letter-spacing:0;word-spacing:0;writing-mode:lr-tb;text-anchor:start;fill:#000;fill-opacity:1;stroke:none;stroke-width:1px;stroke-linecap:butt;stroke-linejoin:miter;stroke-opacity:1" id="text5388-1" x="525.256" y="164.008" xml:space="preserve"><tspan id="tspan5390-2" x="525.256" y="164.008">Downstream</tspan><tspan id="tspan5624-7" x="525.256" y="186.508">peer nodes</tspan></text><text style="font-style:normal;font-weight:400;font-size:22.5px;line-height:100%;font-family:sans-serif;text-align:center;letter-spacing:0;word-spacing:0;writing-mode:lr-tb;text-anchor:middle;fill:#000;fill-opacity:1;stroke:none;stroke-width:1px;stroke-linecap:butt;stroke-linejoin:miter;stroke-opacity:1" id="text5647" x="323.783" y="137.164" xml:space="preserve"><tspan id="tspan5649" x="323.783" y="137.164">Node of interest</tspan><tspan id="tspan8450" x="323.783" y="159.664">view of internal state</tspan></text><text style="font-style:normal;font-weight:400;font-size:17.5px;line-height:100%;font-family:sans-serif;text-align:start;letter-spacing:0;word-spacing:0;writing-mode:lr-tb;text-anchor:start;fill:#000;fill-opacity:1;stroke:none;stroke-width:1px;stroke-linecap:butt;stroke-linejoin:miter;stroke-opacity:1" id="text5655" x="507.48" y="436.088" xml:space="preserve"><tspan id="tspan5657" x="507.48" y="436.088">Chain</tspan><tspan id="tspan5661" x="507.48" y="453.588">following</tspan><tspan id="tspan5659" x="507.48" y="471.088">protocol</tspan></text><text style="font-style:normal;font-weight:400;font-size:17.5px;line-height:100%;font-family:sans-serif;text-align:start;letter-spacing:0;word-spacing:0;writing-mode:lr-tb;text-anchor:start;fill:#000;fill-opacity:1;stroke:none;stroke-width:1px;stroke-linecap:butt;stroke-linejoin:miter;stroke-opacity:1" id="text5655-0" x="72.488" y="298.177" xml:space="preserve"><tspan id="tspan5657-9" x="72.488" y="298.177">Chain</tspan><tspan id="tspan5661-3" x="72.488" y="315.677">following</tspan><tspan id="tspan5659-6" x="72.488" y="333.177">protocol</tspan></text><text style="font-style:normal;font-weight:400;font-size:17.5px;line-height:100%;font-family:sans-serif;text-align:start;letter-spacing:0;word-spacing:0;writing-mode:lr-tb;text-anchor:start;fill:#000;fill-opacity:1;stroke:none;stroke-width:1px;stroke-linecap:butt;stroke-linejoin:miter;stroke-opacity:1" id="text5717" x="182.777" y="456.393" xml:space="preserve"><tspan id="tspan5719" x="182.777" y="456.393">Candidate</tspan><tspan id="tspan5837" x="182.777" y="473.893">chains</tspan></text><text style="font-style:normal;font-weight:400;font-size:17.5px;line-height:100%;font-family:sans-serif;text-align:start;letter-spacing:0;word-spacing:0;writing-mode:lr-tb;text-anchor:start;fill:#000;fill-opacity:1;stroke:none;stroke-width:1px;stroke-linecap:butt;stroke-linejoin:miter;stroke-opacity:1" id="text5721" x="366.18" y="494.131" xml:space="preserve"><tspan id="tspan5833" x="366.18" y="494.131">Tentative</tspan><tspan id="tspan5725" x="366.18" y="511.631">chain</tspan></text><text style="font-style:normal;font-weight:400;font-size:17.5px;line-height:100%;font-family:sans-serif;text-align:start;letter-spacing:0;word-spacing:0;writing-mode:lr-tb;text-anchor:start;fill:#000;fill-opacity:1;stroke:none;stroke-width:1px;stroke-linecap:butt;stroke-linejoin:miter;stroke-opacity:1" id="text5727" x="303.551" y="222.522" xml:space="preserve"><tspan id="tspan5729" x="303.551" y="222.522">Current</tspan><tspan id="tspan5731" x="303.551" y="240.022">chain</tspan><tspan id="tspan5733" x="303.551" y="257.522">state</tspan></text><text style="font-style:normal;font-weight:400;font-size:17.5px;line-height:100%;font-family:sans-serif;text-align:start;letter-spacing:0;word-spacing:0;writing-mode:lr-tb;text-anchor:start;fill:#000;fill-opacity:1;stroke:none;stroke-width:1px;stroke-linecap:butt;stroke-linejoin:miter;stroke-opacity:1" id="text5735" x="324.157" y="316.466" xml:space="preserve"><tspan id="tspan5739" x="324.157" y="316.466">Adopt and reject</tspan><tspan id="tspan5741" x="324.157" y="333.966">tentative changes</tspan></text><text style="font-style:normal;font-weight:400;font-size:17.5px;line-height:100%;font-family:sans-serif;text-align:start;letter-spacing:0;word-spacing:0;writing-mode:lr-tb;text-anchor:start;fill:#000;fill-opacity:1;stroke:none;stroke-width:1px;stroke-linecap:butt;stroke-linejoin:miter;stroke-opacity:1" id="text5839" x="275.772" y="408.39" xml:space="preserve"><tspan id="tspan5845" x="275.772" y="408.39">Select</tspan><tspan id="tspan5969" x="275.772" y="425.89">candidate</tspan></text></g></svg>