<svg xmlns="http://www.w3.org/2000/svg" xmlns:svg="http://www.w3.org/2000/svg" id="svg10272" width="210mm" height="297mm" version="1.1" viewBox="0 0 744.094 1052.362"><defs id="defs10274"><marker id="DotM" orient="auto" refX="0" refY="0" style="overflow:visible"><path id="path9977" d="M -2.5,-1.0 C -2.5,1.7600000 -4.7400000,4.0 -7.5,4.0 C -10.260000,4.0 -12.5,1.7600000 -12.5,-1.0 C -12.5,-3.7600000 -10.260000,-6.0 -7.5,-6.0 C -4.7400000,-6.0 -2.5,-3.7600000 -2.5,-1.0 z" transform="scale(0.4) translate(7.4, 1)" style="fill-rule:evenodd;stroke:#000;stroke-width:1pt;stroke-opacity:1;fill:#000;fill-opacity:1"/></marker><marker id="Arrow1Mstart" orient="auto" refX="0" refY="0" style="overflow:visible"><path id="path9919" d="M 0.0,0.0 L 5.0,-5.0 L -12.5,0.0 L 5.0,5.0 L 0.0,0.0 z" transform="scale(0.4) translate(10,0)" style="fill-rule:evenodd;stroke:#000;stroke-width:1pt;stroke-opacity:1;fill:#000;fill-opacity:1"/></marker><marker id="Tail" orient="auto" refX="0" refY="0" style="overflow:visible"><g id="g9949" transform="scale(-1.2)" style="stroke:#000;stroke-opacity:1;fill:#000;fill-opacity:1"><path id="path9951" d="M -3.8048674,-3.9585227 L 0.54352094,0" style="fill:#000;fill-rule:evenodd;stroke:#000;stroke-width:.8;stroke-linecap:round;stroke-opacity:1;fill-opacity:1"/><path id="path9953" d="M -1.2866832,-3.9585227 L 3.0617053,0" style="fill:#000;fill-rule:evenodd;stroke:#000;stroke-width:.8;stroke-linecap:round;stroke-opacity:1;fill-opacity:1"/><path id="path9955" d="M 1.3053582,-3.9585227 L 5.6537466,0" style="fill:#000;fill-rule:evenodd;stroke:#000;stroke-width:.8;stroke-linecap:round;stroke-opacity:1;fill-opacity:1"/><path id="path9957" d="M -3.8048674,4.1775838 L 0.54352094,0.21974226" style="fill:#000;fill-rule:evenodd;stroke:#000;stroke-width:.8;stroke-linecap:round;stroke-opacity:1;fill-opacity:1"/><path id="path9959" d="M -1.2866832,4.1775838 L 3.0617053,0.21974226" style="fill:#000;fill-rule:evenodd;stroke:#000;stroke-width:.8;stroke-linecap:round;stroke-opacity:1;fill-opacity:1"/><path id="path9961" d="M 1.3053582,4.1775838 L 5.6537466,0.21974226" style="fill:#000;fill-rule:evenodd;stroke:#000;stroke-width:.8;stroke-linecap:round;stroke-opacity:1;fill-opacity:1"/></g></marker><marker id="DotL" orient="auto" refX="0" refY="0" style="overflow:visible"><path id="path9974" d="M -2.5,-1.0 C -2.5,1.7600000 -4.7400000,4.0 -7.5,4.0 C -10.260000,4.0 -12.5,1.7600000 -12.5,-1.0 C -12.5,-3.7600000 -10.260000,-6.0 -7.5,-6.0 C -4.7400000,-6.0 -2.5,-3.7600000 -2.5,-1.0 z" transform="scale(0.8) translate(7.4, 1)" style="fill-rule:evenodd;stroke:#000;stroke-width:1pt;stroke-opacity:1;fill:#000;fill-opacity:1"/></marker><marker id="Arrow1Lend" orient="auto" refX="0" refY="0" style="overflow:visible"><path id="path9916" d="M 0.0,0.0 L 5.0,-5.0 L -12.5,0.0 L 5.0,5.0 L 0.0,0.0 z" transform="scale(0.8) rotate(180) translate(12.5,0)" style="fill-rule:evenodd;stroke:#000;stroke-width:1pt;stroke-opacity:1;fill:#000;fill-opacity:1"/></marker><marker style="overflow:visible" id="marker10985" orient="auto" refX="0" refY="0"><path style="fill-rule:evenodd;stroke:#000;stroke-width:1pt;stroke-opacity:1;fill:#000;fill-opacity:1" id="path10987" d="M 0.0,0.0 L 5.0,-5.0 L -12.5,0.0 L 5.0,5.0 L 0.0,0.0 z" transform="scale(0.4) rotate(180) translate(10,0)"/></marker><marker style="overflow:visible" id="marker10951" orient="auto" refX="0" refY="0"><path style="fill-rule:evenodd;stroke:#000;stroke-width:1pt;stroke-opacity:1;fill:#000;fill-opacity:1" id="path10953" d="M 0.0,0.0 L 5.0,-5.0 L -12.5,0.0 L 5.0,5.0 L 0.0,0.0 z" transform="scale(0.4) rotate(180) translate(10,0)"/></marker><marker style="overflow:visible" id="marker10923" orient="auto" refX="0" refY="0"><path style="fill-rule:evenodd;stroke:#000;stroke-width:1pt;stroke-opacity:1;fill:#000;fill-opacity:1" id="path10925" d="M 0.0,0.0 L 5.0,-5.0 L -12.5,0.0 L 5.0,5.0 L 0.0,0.0 z" transform="scale(0.4) rotate(180) translate(10,0)"/></marker><marker style="overflow:visible" id="marker10901" orient="auto" refX="0" refY="0"><path style="fill-rule:evenodd;stroke:#000;stroke-width:1pt;stroke-opacity:1;fill:#000;fill-opacity:1" id="path10903" d="M 0.0,0.0 L 5.0,-5.0 L -12.5,0.0 L 5.0,5.0 L 0.0,0.0 z" transform="scale(0.4) rotate(180) translate(10,0)"/></marker><marker id="DotL-0" orient="auto" refX="0" refY="0" style="overflow:visible"><path id="path9974-9" d="m -2.5,-1 c 0,2.76 -2.24,5 -5,5 -2.76,0 -5,-2.24 -5,-5 0,-2.76 2.24,-5 5,-5 2.76,0 5,2.24 5,5 z" transform="matrix(0.8,0,0,0.8,5.92,0.8)" style="fill:#000;fill-opacity:1;fill-rule:evenodd;stroke:#000;stroke-width:1pt;stroke-opacity:1"/></marker><marker id="Arrow1Lend-3" orient="auto" refX="0" refY="0" style="overflow:visible"><path id="path9916-6" d="M 0,0 5,-5 -12.5,0 5,5 0,0 Z" transform="matrix(-0.8,0,0,-0.8,-10,0)" style="fill:#000;fill-opacity:1;fill-rule:evenodd;stroke:#000;stroke-width:1pt;stroke-opacity:1"/></marker><marker id="DotL-0-8" orient="auto" refX="0" refY="0" style="overflow:visible"><path id="path9974-9-4" d="m -2.5,-1 c 0,2.76 -2.24,5 -5,5 -2.76,0 -5,-2.24 -5,-5 0,-2.76 2.24,-5 5,-5 2.76,0 5,2.24 5,5 z" transform="matrix(0.8,0,0,0.8,5.92,0.8)" style="fill:#000;fill-opacity:1;fill-rule:evenodd;stroke:#000;stroke-width:1pt;stroke-opacity:1"/></marker><marker id="Arrow1Lend-3-5" orient="auto" refX="0" refY="0" style="overflow:visible"><path id="path9916-6-0" d="M 0,0 5,-5 -12.5,0 5,5 0,0 Z" transform="matrix(-0.8,0,0,-0.8,-10,0)" style="fill:#000;fill-opacity:1;fill-rule:evenodd;stroke:#000;stroke-width:1pt;stroke-opacity:1"/></marker></defs><metadata id="metadata10277"/><g id="layer1"><rect style="fill:none;fill-opacity:1;stroke:#000;stroke-width:2;stroke-miterlimit:4;stroke-dasharray:none;stroke-dashoffset:0;stroke-opacity:1" id="rect10822" width="30" height="30" x="121.696" y="933.612"/><rect style="fill:none;fill-opacity:1;stroke:#000;stroke-width:2;stroke-miterlimit:4;stroke-dasharray:none;stroke-dashoffset:0;stroke-opacity:1" id="rect10822-5" width="30" height="30" x="177.173" y="933.612"/><rect style="fill:none;fill-opacity:1;stroke:#000;stroke-width:2;stroke-miterlimit:4;stroke-dasharray:none;stroke-dashoffset:0;stroke-opacity:1" id="rect10822-3" width="30" height="30" x="232.649" y="933.612"/><rect style="fill:none;fill-opacity:1;stroke:#000;stroke-width:2;stroke-miterlimit:4;stroke-dasharray:2,2;stroke-dashoffset:0;stroke-opacity:1" id="rect10822-5-2" width="30" height="30" x="177.113" y="883.541"/><rect style="fill:none;fill-opacity:1;stroke:#000;stroke-width:2;stroke-miterlimit:4;stroke-dasharray:2,2;stroke-dashoffset:0;stroke-opacity:1" id="rect10822-3-9" width="30" height="30" x="232.649" y="883.541"/><path style="fill:none;fill-rule:evenodd;stroke:#000;stroke-width:1px;stroke-linecap:butt;stroke-linejoin:miter;stroke-opacity:1" id="path10869" d="m 151.6964,948.61222 h 25.47619"/><path style="fill:none;fill-rule:evenodd;stroke:#000;stroke-width:1px;stroke-linecap:butt;stroke-linejoin:miter;stroke-opacity:1" id="path10871" d="m 207.17259,948.61222 h 25.4762"/><path style="fill:none;fill-rule:evenodd;stroke:#000;stroke-width:1;stroke-linecap:butt;stroke-linejoin:miter;stroke-miterlimit:4;stroke-dasharray:1,1;stroke-dashoffset:0;stroke-opacity:1" id="path10877" d="m 151.6964,935.05905 25.41668,-22.9651"/><path style="fill:none;fill-rule:evenodd;stroke:#000;stroke-width:1;stroke-linecap:butt;stroke-linejoin:miter;stroke-miterlimit:4;stroke-dasharray:1,1;stroke-dashoffset:0;stroke-opacity:1" id="path10879" d="m 207.11308,898.54078 h 25.53571"/><path style="fill:none;fill-rule:evenodd;stroke:#000;stroke-width:1px;stroke-linecap:butt;stroke-linejoin:miter;stroke-opacity:1;marker-start:url(#DotL-0);marker-end:url(#Arrow1Lend-3)" id="path12462-0" d="m 136.26578,996.39317 -0.25254,-32.07235"/><text style="font-style:normal;font-weight:400;line-height:0%;font-family:sans-serif;text-align:start;letter-spacing:0;word-spacing:0;writing-mode:lr-tb;text-anchor:start;fill:#000;fill-opacity:1;stroke:none;stroke-width:1px;stroke-linecap:butt;stroke-linejoin:miter;stroke-opacity:1" id="text13181" x="291.442" y="926.88" xml:space="preserve"><tspan id="tspan13183" x="291.442" y="926.88" style="font-size:10px;line-height:1">head</tspan></text><text style="font-style:normal;font-weight:400;line-height:0%;font-family:sans-serif;text-align:start;letter-spacing:0;word-spacing:0;writing-mode:lr-tb;text-anchor:start;fill:#000;fill-opacity:1;stroke:none;stroke-width:1px;stroke-linecap:butt;stroke-linejoin:miter;stroke-opacity:1" id="text13181-6" x="6.038" y="953.367" xml:space="preserve"><tspan id="tspan13203" x="6.038" y="953.367" style="font-size:10px;line-height:1">New chain</tspan></text><text style="font-style:normal;font-weight:400;line-height:0%;font-family:sans-serif;text-align:start;letter-spacing:0;word-spacing:0;writing-mode:lr-tb;text-anchor:start;fill:#000;fill-opacity:1;stroke:none;stroke-width:1px;stroke-linecap:butt;stroke-linejoin:miter;stroke-opacity:1" id="text13205" x="6.373" y="890.473" xml:space="preserve"><tspan id="tspan13215" x="6.373" y="890.473" style="font-size:10px;line-height:1">Old chain fork</tspan><tspan id="tspan13227" x="6.373" y="900.473" style="font-size:10px;line-height:1">no longer tracked</tspan><tspan id="tspan16845" x="6.373" y="910.473" style="font-size:10px;line-height:1">by the producer</tspan></text><rect style="fill:none;fill-opacity:1;stroke:#000;stroke-width:.5;stroke-miterlimit:4;stroke-dasharray:none;stroke-dashoffset:0;stroke-opacity:1" id="rect13229-0" width="105.056" height="60.357" x="129.824" y="989.07"/><text style="font-style:normal;font-weight:400;line-height:0%;font-family:sans-serif;text-align:start;letter-spacing:0;word-spacing:0;writing-mode:lr-tb;text-anchor:start;fill:#000;fill-opacity:1;stroke:none;stroke-width:1px;stroke-linecap:butt;stroke-linejoin:miter;stroke-opacity:1" id="text13231-2" x="133.184" y="1012.466" xml:space="preserve"><tspan id="tspan13313" x="133.184" y="1012.466" style="font-size:10px;line-height:1">Next message:</tspan><tspan id="tspan13235-7" x="133.184" y="1022.466" style="font-size:10px;line-height:1">RollBackward</tspan><tspan id="tspan13396" x="133.184" y="1032.466" style="font-size:10px;line-height:1">to block 39, fa40</tspan></text><text style="font-style:normal;font-weight:400;line-height:0%;font-family:sans-serif;text-align:start;letter-spacing:0;word-spacing:0;writing-mode:lr-tb;text-anchor:start;fill:#000;fill-opacity:1;stroke:none;stroke-width:1px;stroke-linecap:butt;stroke-linejoin:miter;stroke-opacity:1" id="text13241-5" x="233.678" y="955.541" xml:space="preserve"><tspan id="tspan13243-9" x="233.678" y="955.541" style="font-size:5px;line-height:1">block: 41</tspan><tspan id="tspan13317-2" x="233.678" y="960.541" style="font-size:5px;line-height:1">hash: e4e0</tspan></text><text style="font-style:normal;font-weight:400;line-height:0%;font-family:sans-serif;text-align:start;letter-spacing:0;word-spacing:0;writing-mode:lr-tb;text-anchor:start;fill:#000;fill-opacity:1;stroke:none;stroke-width:1px;stroke-linecap:butt;stroke-linejoin:miter;stroke-opacity:1" id="text13241-2" x="178.187" y="955.541" xml:space="preserve"><tspan id="tspan13243-8" x="178.187" y="955.541" style="font-size:5px;line-height:1">block: 40</tspan><tspan id="tspan13317-9" x="178.187" y="960.541" style="font-size:5px;line-height:1">hash: 5de3</tspan></text><text style="font-style:normal;font-weight:400;line-height:0%;font-family:sans-serif;text-align:start;letter-spacing:0;word-spacing:0;writing-mode:lr-tb;text-anchor:start;fill:#000;fill-opacity:1;stroke:none;stroke-width:1px;stroke-linecap:butt;stroke-linejoin:miter;stroke-opacity:1" id="text13241-7" x="123.39" y="955.541" xml:space="preserve"><tspan id="tspan13243-3" x="123.39" y="955.541" style="font-size:5px;line-height:1">block: 39</tspan><tspan id="tspan13317-6" x="123.39" y="960.541" style="font-size:5px;line-height:1">hash: fa40</tspan></text><text style="font-style:normal;font-weight:400;line-height:0%;font-family:sans-serif;text-align:start;letter-spacing:0;word-spacing:0;writing-mode:lr-tb;text-anchor:start;fill:#000;fill-opacity:1;stroke:none;stroke-width:1px;stroke-linecap:butt;stroke-linejoin:miter;stroke-opacity:1" id="text13241-1" x="178.131" y="906.6" xml:space="preserve"><tspan id="tspan13243-2" x="178.131" y="906.6" style="font-size:5px;line-height:1">block: 40</tspan><tspan id="tspan13317-93" x="178.131" y="911.6" style="font-size:5px;line-height:1">hash: aab4</tspan></text><text style="font-style:normal;font-weight:400;line-height:0%;font-family:sans-serif;text-align:start;letter-spacing:0;word-spacing:0;writing-mode:lr-tb;text-anchor:start;fill:#000;fill-opacity:1;stroke:none;stroke-width:1px;stroke-linecap:butt;stroke-linejoin:miter;stroke-opacity:1" id="text13241-19" x="234.067" y="906.6" xml:space="preserve"><tspan id="tspan13243-4" x="234.067" y="906.6" style="font-size:5px;line-height:1">block: 41</tspan><tspan id="tspan13317-7" x="234.067" y="911.6" style="font-size:5px;line-height:1">hash: 660f</tspan></text><path style="fill:none;fill-rule:evenodd;stroke:#000;stroke-width:1;stroke-linecap:butt;stroke-linejoin:miter;stroke-miterlimit:4;stroke-dasharray:8,1;stroke-dashoffset:0;stroke-opacity:1;marker-end:url(#DotM)" id="path12462-0-3" d="m 136.51831,996.40212 c 33.57143,-67.85714 95.96448,-82.26744 95.96448,-82.26744"/><text style="font-style:normal;font-weight:400;line-height:0%;font-family:sans-serif;text-align:start;letter-spacing:0;word-spacing:0;writing-mode:lr-tb;text-anchor:start;fill:#000;fill-opacity:1;stroke:none;stroke-width:1px;stroke-linecap:butt;stroke-linejoin:miter;stroke-opacity:1" id="text13181-6-6" x="6.077" y="1023.203" xml:space="preserve"><tspan id="tspan16872" x="6.077" y="1023.203" style="font-size:10px;line-height:1">Read pointer</tspan></text><path style="fill:none;fill-rule:evenodd;stroke:#000;stroke-width:1px;stroke-linecap:butt;stroke-linejoin:miter;stroke-opacity:1" id="path10869-6" d="m 105.46676,948.61222 h 15.75348"/><rect style="fill:none;fill-opacity:1;stroke:#000;stroke-width:2;stroke-miterlimit:4;stroke-dasharray:none;stroke-dashoffset:0;stroke-opacity:1" id="rect10822-3-7" width="30" height="30" x="290.357" y="934.572"/><text style="font-style:normal;font-weight:400;font-size:12px;line-height:0%;font-family:sans-serif;text-align:start;letter-spacing:0;word-spacing:0;writing-mode:lr-tb;text-anchor:start;fill:#000;fill-opacity:1;stroke:none;stroke-width:1px;stroke-linecap:butt;stroke-linejoin:miter;stroke-opacity:1" id="text13241-5-5" x="290.784" y="956.166" xml:space="preserve"><tspan id="tspan13243-9-3" x="290.784" y="956.166" style="font-size:5px;line-height:1;stroke-width:1px">block: 42</tspan><tspan id="tspan13317-2-5" x="290.784" y="961.166" style="font-size:5px;line-height:1;stroke-width:1px">hash: cdf0</tspan></text><path style="fill:none;fill-rule:evenodd;stroke:#000;stroke-width:1px;stroke-linecap:butt;stroke-linejoin:miter;stroke-opacity:1" id="path10871-6" d="m 263.48957,948.90239 h 25.47621"/></g></svg>